<svg xmlns="http://www.w3.org/2000/svg" xmlns:xlink="http://www.w3.org/1999/xlink" width="350.7" height="248" viewBox="0 0 1052.4 744.1">
  <defs>
    <radialGradient id="a" cx="22.7" cy="-15" r="3.2" gradientTransform="matrix(1 0 0 2 0 20)" gradientUnits="userSpaceOnUse">
      <stop offset="0" stop-color="#e7e7e7"/>
      <stop offset="1" stop-color="#565656"/>
    </radialGradient>
    <radialGradient id="c" cx="25.5" cy="30.7" r="15.2" gradientTransform="matrix(2 0 0 1 -14 5)" gradientUnits="userSpaceOnUse">
      <stop offset="0"/>
      <stop offset="1" stop-color="#5e5e5e"/>
    </radialGradient>
    <radialGradient xlink:href="#a" id="f" cx="22.7" cy="-15" r="3.2" gradientTransform="matrix(1 0 0 2 0 20)" gradientUnits="userSpaceOnUse"/>
    <radialGradient xlink:href="#a" id="g" cx="22.7" cy="-15" r="3.2" gradientTransform="matrix(1 0 0 2 0 20)" gradientUnits="userSpaceOnUse"/>
    <radialGradient xlink:href="#c" id="i" cx="25.5" cy="30.7" r="15.2" gradientTransform="matrix(29 0 0 12 -339 200)" gradientUnits="userSpaceOnUse"/>
    <linearGradient id="b" x1="11.7" x2="10.8" y1="33.6" y2="35.9" gradientTransform="translate(-1 -1)" gradientUnits="userSpaceOnUse">
      <stop offset="0" stop-color="#96d2e2"/>
      <stop offset="1" stop-color="#1d5868"/>
    </linearGradient>
    <linearGradient id="d">
      <stop offset="0" stop-color="#666"/>
      <stop offset="1" stop-color="#ababab" stop-opacity="0"/>
    </linearGradient>
    <linearGradient xlink:href="#b" id="h" x1="11.7" x2="10.8" y1="33.6" y2="35.9" gradientTransform="matrix(20 0 0 20 -96 80)" gradientUnits="userSpaceOnUse"/>
    <linearGradient xlink:href="#d" id="j" x1="22.9" x2="21.3" y1="27.2" y2="16.7" gradientTransform="matrix(20 0 0 20 -96 80)" gradientUnits="userSpaceOnUse"/>
    <linearGradient xlink:href="#d" id="k" x1="9.6" x2="20.7" y1="29.3" y2="18.3" gradientTransform="matrix(20 0 0 20 -96 80)" gradientUnits="userSpaceOnUse"/>
    <filter id="e" color-interpolation-filters="sRGB">
      <feGaussianBlur stdDeviation=".6"/>
    </filter>
  </defs>
  <g transform="translate(152 -274)">
    <path d="M131 525c-14 14-54 6-45-26 9-31 47-14 52 4-3 12-6 12-7 22z" style="fill:red"/>
    <path d="M131 525c-15 17-58 1-42-24 10-15 28-2 39 15-2 12 4-1 3 9z" style="fill:#a00"/>
    <path d="M5 37c0 3 14 8 19 8l19-15c-3-10-38 0-38 7z" style="opacity:.5;fill:#000;filter:url(#e)" transform="matrix(23 0 0 23 -169 -29)"/>
    <g style="fill-rule:nonzero">
      <path d="M25 27c-1 0-2 2-2 5l1 6h3c1 0 2-2 2-5l-2-6h-2z" style="color:#000;fill:#000;enable-background:accumulate" transform="matrix(19 0 0 19 202 -11)"/>
      <path d="M27-15a3 8 0 1 1-6 0 3 8 0 1 1 6 0z" style="color:#000;fill:url(#f);enable-background:accumulate" transform="matrix(7 0 0 7 561 716)"/>
    </g>
    <g style="fill-rule:nonzero">
      <path d="M25 27c-1 0-2 2-2 5l1 6h3c1 0 2-2 2-5l-2-6h-2z" style="color:#000;fill:#000;enable-background:accumulate" transform="matrix(23 0 0 23 -184 85)"/>
      <path d="M27-15a3 8 0 1 1-6 0 3 8 0 1 1 6 0z" style="color:#000;fill:url(#g);enable-background:accumulate" transform="matrix(8 0 0 8 239 942)"/>
    </g>
    <path d="M120 525c-5 10-27 5-27-3-1-15 32-7 27 3z" style="fill:#6d0000"/>
    <path d="M410 304c-9 0-18 1-26 3-59 13-136 67-158 81-25 15-76 92-109 132-18 23-166 74-178 132-5 24-7 44-8 61-5 9-8 22-8 35 0 24 11 41 22 49a919 919 0 0 0 343 136c46 8 96-23 96-23s-10-139 38-175c57-42 50 109 68 95 26-22 179-138 193-146 13-8 0-123 33-145 49-33 43 95 56 80 11-14 19-15 21-20 12-6 21-25 21-48 0-24-9-44-22-49-1-16-5-31-11-41-14-19-24-31-82-45-18-22-43-47-79-66-35-19-143-48-210-46z" style="color:#000;fill:red;fill-rule:nonzero;enable-background:accumulate"/>
    <path d="M383 331c-29-1-68 10-118 41-30 19 59 14 177 60 30 12 29-98-59-101zM93 576c-34 1-71 12-109 39-42 29 187 109 296 139 56 16-40-181-187-178z" style="fill:#ff8080"/>
    <path d="M620 366c-44-2-147 58-155 79-9 21-35 166-46 181-10 14-99 118-109 143-14 36-10 109-11 127 0 15-13 28-44 30l33 7c46 8 96-23 96-23s-10-139 38-175c57-42 50 109 68 95 26-22 179-138 193-146 13-8 0-123 33-145 49-33 43 95 56 80 11-14 19-15 21-20 12-6 21-25 21-48 0-24-10-44-22-49-1-16-5-31-11-40-6-8-11-15-18-21-12-5-22-8-38-4-37-21-62-70-105-71z" style="color:#000;fill:#a00;fill-rule:nonzero;enable-background:accumulate"/>
    <path d="M336 758c-20 5 0 15-31 15-33-1-326-111-359-129-5-3-16 61-13 71 4 9 104 54 164 77 59 24 174 66 201 64s72-98 38-98z" style="fill:#a00"/>
    <path d="m46 757 118 45M45 724l135 54" style="fill:none;stroke:#000;stroke-width:13.34506607px;stroke-linecap:round;stroke-linejoin:miter"/>
    <path d="M-61 652c-4 21-7 40-8 56l90 38-18-63-64-31zm295 113-40 49c100 40 116 41 151 24 22-11 2-64-17-54-19 11-42-4-94-19z" style="fill:url(#h)"/>
    <path d="M428 305c-44 12-160 61-169 93-4 15-52 119-56 126-5 8-131 78-176 158l57 20c45-70 160-141 173-152 12-11 44-125 56-145 23-35 144-86 173-93l2-1c-20-4-41-5-60-6zm112 18h-5c-62 15-152 62-170 93-8 14-57 143-61 151-5 8-109 75-154 162l63 22c46-77 135-151 147-162 13-11 41-130 52-151 21-39 121-88 184-98-16-6-35-12-56-17z" style="fill:#ccc"/>
    <path d="M622 380c-13 0-49 7-39 18 16 17 36 64 46 92 7 19 65-27 71-38 8-17-64-72-78-72zm-381 14-5 1c-16 6-98 114-101 133-1 11 262 97 269 82 10-27 52-149 42-161-11-11-171-55-205-55zm311 15c-14 0-67 29-73 44-6 14-40 143-27 147 19 5 146-77 152-88 8-16-39-103-52-103z" style="fill:url(#i)"/>
    <path d="M-72 773c4 11 10 19 17 24a919 919 0 0 0 343 136h28c-2-30-14-64-16-44-2 25-30 20-53 17-59-8-274-96-319-133z" style="color:#000;fill:#a00;fill-rule:nonzero;enable-background:accumulate"/>
    <path d="M29 782v48l135 52v-50L29 782z" style="fill:#b3b3b3"/>
    <path d="m39 692 163 63" style="fill:none;stroke:#000;stroke-width:13.34506607px;stroke-linecap:round;stroke-linejoin:miter"/>
    <path d="M764 458c-22 2-54 24-112 79-92 85-186 65-304 227-27 37 3 57-19 90-21 33-20 60 14 58 6 0 22-9 41-21-1-38 1-128 38-156 46-34 56 33 66 80 66-50 135-102 201-154 3-36 2-106 27-122 35-24 48 18 54 61l19-16c12-9 20-20 25-33v-1c-1-23-10-43-22-48-1-16-5-31-11-41-5-2-11-3-17-3z" style="fill:#6d0000"/>
    <path d="M-61 652c-4 21-7 40-8 56l17 7c3-23 7-42 11-54l-20-9zm393 131-4 1c-9 5-20 4-34 0-8 19-13 41-15 60 30 8 45 4 66-6 20-11 5-58-13-55z" style="fill:#ff9e00"/>
    <path d="M622 380c-13 0-50 7-39 18 33 7 74 19 106 30-20-21-57-48-67-48z" style="fill:url(#j)"/>
    <path d="m241 394-5 1c-16 6-98 114-101 133 111-62 151-92 182-120-33-8-64-14-76-14z" style="fill:url(#k)"/>
    <path d="M-64 729c5-3 160 68 154 69-39 4-175-57-154-69z" style="fill:#f55"/>
    <path d="m372 331-21 4c-34 15-68 33-83 49 9 4 28 7 53 13 19-19 59-41 96-58-10-4-21-7-34-8h-11zm70 28c-31 16-58 34-72 50l52 16c9-9 22-19 37-29-2-12-7-26-17-37zM126 579c-32 24-67 55-90 88l55 23c25-32 62-63 95-89-18-10-38-18-60-22zm101 52c-25 24-50 53-69 84 22 8 43 16 64 22 14-20 30-41 46-59-11-16-25-32-41-47z" style="fill:#fff"/>
    <path d="M631 532c9 49 13 111 16 170 10-34 11-123-16-170z" style="fill:#a00"/>
    <path d="M563 396c60 106 73 148 82 302 15-126-27-238-82-302z" style="fill:#2b0000"/>
    <path d="M460 642c22 56 40 120 39 173 13-48-5-143-39-173z" style="fill:#a00"/>
    <path d="M439 613c31 57 52 117 59 194 7-75-22-151-59-194z" style="fill:#2b0000"/>
    <path d="M449 623c11 18 63 27 67-6 3-32-40-35-60-25-31 17-7 29-7 31z" style="fill:red"/>
    <path d="M449 623c9 18 66 28 66-8 0-33-42-13-62-12-20 2-9 16-4 20z" style="fill:#a00"/>
    <path d="M449 623c18 22 59 17 54-3-7-25-29 3-47-4-23-9-14 5-7 7z" style="fill:#6d0000"/>
    <rect width="64.8" height="23.2" x="382.1" y="322.8" rx="5.3" ry="3.9" style="opacity:.5;color:#000;fill:#1a1a1a;fill-rule:nonzero;enable-background:accumulate" transform="rotate(16) skewX(4)"/>
    <path d="M30 784c-4 11-9 37-2 46l2-46z" style="fill:#6d0000"/>
    <path d="M24 826c4 12 131 59 142 56-77-27-139-57-142-56z" style="fill:#6d0000"/>
    <path d="m332 783-4 1c-4 2-7 3-11 3-4 16-7 44-6 60 12 0 22-3 34-9 21-10 5-58-13-55z" style="opacity:.5;color:#000;fill:#963500;fill-opacity:1;fill-rule:nonzero;stroke:none;stroke-width:6;marker:none;visibility:visible;display:inline;overflow:visible;enable-background:accumulate"/>
  </g>
</svg>